<svg xmlns="http://www.w3.org/2000/svg" xmlns:xlink="http://www.w3.org/1999/xlink" width="500" zoomAndPan="magnify" viewBox="0 0 375 374.999991" height="500" preserveAspectRatio="xMidYMid meet" version="1.0"><defs><g/><clipPath id="91b2ef1b54"><rect x="0" width="286" y="0" height="375"/></clipPath></defs><g transform="matrix(1, 0, 0, 1, 45, 0)"><g clip-path="url(#91b2ef1b54)"><g fill="#ff734d" fill-opacity="1"><g transform="translate(0.26687, 331.535905)"><g><path d="M 37.796875 0 L 37.796875 -290.828125 L 161.921875 -290.828125 C 179.828125 -290.828125 194.976562 -288.007812 207.375 -282.375 C 219.769531 -276.738281 229.148438 -268.710938 235.515625 -258.296875 C 241.890625 -247.890625 245.078125 -235.59375 245.078125 -221.40625 C 245.078125 -208.539062 241.957031 -197.195312 235.71875 -187.375 C 229.488281 -177.5625 220.539062 -169.675781 208.875 -163.71875 L 208.875 -159.53125 C 227.164062 -154.757812 241.285156 -146.070312 251.234375 -133.46875 C 261.179688 -120.875 266.15625 -105.425781 266.15625 -87.125 C 266.15625 -59.28125 257.765625 -37.796875 240.984375 -22.671875 C 224.210938 -7.554688 199.316406 0 166.296875 0 Z M 149.984375 -174.859375 C 176.773438 -174.859375 190.171875 -186.925781 190.171875 -211.0625 C 190.171875 -223.394531 186.851562 -232.578125 180.21875 -238.609375 C 173.59375 -244.640625 163.515625 -247.65625 149.984375 -247.65625 L 95.28125 -247.65625 L 95.28125 -174.859375 Z M 160.53125 -45.546875 C 192.226562 -45.546875 208.078125 -59.9375 208.078125 -88.71875 C 208.078125 -117.625 192.226562 -132.078125 160.53125 -132.078125 L 95.28125 -132.078125 L 95.28125 -45.546875 Z M 160.53125 -45.546875 "/></g></g></g></g></g></svg>